<svg xmlns="http://www.w3.org/2000/svg" xmlns:xlink="http://www.w3.org/1999/xlink" width="1920" height="1163" viewBox="0 0 1920 1163">
  <defs>
    <clipPath id="clip-Web_1920_1">
      <rect width="1920" height="1163"/>
    </clipPath>
  </defs>
  <g id="Web_1920_1" data-name="Web 1920 – 1" clip-path="url(#clip-Web_1920_1)">
    <rect width="1920" height="1163" fill="#fff"/>
    <g id="Groupe_1" data-name="Groupe 1" transform="translate(-15 3)">
      <rect id="Rectangle_3" data-name="Rectangle 3" width="1920" height="1145" transform="translate(15 -3)" fill="#fff"/>
      <path id="Rectangle_1" data-name="Rectangle 1" d="M195.214-1.132,949.906-5.507a192.424,192.424,0,0,1,194.082,193.924l-6.707,1155.844c-.625,107.726-88.532,195.562-196.345,196.187l-754.692,4.375A192.424,192.424,0,0,1-7.838,1350.9L-1.132,195.055C-.507,87.329,87.4-.507,195.214-1.132Z" transform="translate(1723.557 -214.209) rotate(43)" fill="#191818"/>
      <path id="hamburgerBg" d="M109.784,18c-57.643,0-87.8,28.107-87.8,55.874v2.8h0a6.679,6.679,0,0,0-5.316,6.517v18.625a6.658,6.658,0,0,0,4.324,6.2,19.8,19.8,0,0,0,.78,30.816,47.338,47.338,0,0,0-3.539,4.594C16.171,146.435,14,150.154,14,153.694a9.361,9.361,0,0,0,4.932,8,16.431,16.431,0,0,0,3.05,1.372v9.307a16,16,0,0,0,15.964,15.912H181.622a16.006,16.006,0,0,0,15.964-15.912v-9.307a16.43,16.43,0,0,0,3.05-1.372,9.361,9.361,0,0,0,4.932-8c0-3.541-2.171-7.259-4.225-10.269a47.348,47.348,0,0,0-3.539-4.594,19.8,19.8,0,0,0,.78-30.816,6.658,6.658,0,0,0,4.324-6.2V83.186a6.683,6.683,0,0,0-5.321-6.517v-2.8C197.586,46.107,167.428,18,109.784,18Zm0,5.321c54.15,0,82.481,25.431,82.481,50.553v2.661H27.3V73.874C27.3,48.752,55.634,23.321,109.784,23.321ZM80.517,39.285a5.321,5.321,0,1,0,5.321,5.321,5.321,5.321,0,0,0-5.321-5.321Zm0,2.661a2.641,2.641,0,1,1-1.888.773,2.661,2.661,0,0,1,1.888-.773ZM69.874,52.589A5.321,5.321,0,1,0,75.2,57.91,5.321,5.321,0,0,0,69.874,52.589Zm21.285,0A5.321,5.321,0,1,0,96.48,57.91a5.321,5.321,0,0,0-5.321-5.321Zm-21.285,2.66a2.641,2.641,0,1,1-1.888.773,2.661,2.661,0,0,1,1.888-.773Zm21.285,0a2.641,2.641,0,1,1-1.886.774,2.661,2.661,0,0,1,1.886-.774ZM23.312,79.2H196.256a3.969,3.969,0,0,1,3.991,3.991v18.625a3.969,3.969,0,0,1-3.991,3.991H23.312a3.969,3.969,0,0,1-3.991-3.991V83.186A3.969,3.969,0,0,1,23.312,79.2Zm21.831,29.267H154.616a295.432,295.432,0,0,0-38.538,7.888,1.33,1.33,0,1,0,.717,2.562,280.084,280.084,0,0,1,70.336-10.367,14.631,14.631,0,0,1-1.517,29.184H33.955a14.626,14.626,0,0,1-2.063-29.106c12.731.8,23.882,6.094,32.048,11.5a88.273,88.273,0,0,1,10.43,8.1c2.45,2.22,3.891,3.816,3.825,3.741a1.33,1.33,0,0,0,1.58.312s3.866-1.9,10.544-4.531a1.33,1.33,0,1,0-.977-2.474c-6.2,2.448-9.272,3.95-9.863,4.235a44.165,44.165,0,0,0-3.321-3.253,90.809,90.809,0,0,0-10.746-8.346,77.039,77.039,0,0,0-20.269-9.449Zm57.922,11.9a1.331,1.331,0,0,0-.353.073c-1.876.623-3.667,1.238-5.347,1.835a1.33,1.33,0,1,0,.894,2.5c1.662-.59,3.436-1.2,5.3-1.814a1.33,1.33,0,0,0-.488-2.6ZM23.951,140.391H195.617a42.2,42.2,0,0,1,3.534,4.531c1.937,2.838,3.757,6.435,3.757,8.772,0,2.444-1.278,4.3-3.643,5.722a21.773,21.773,0,0,1-19.321,0c-2.365-1.423-3.643-3.277-3.643-5.722a2.661,2.661,0,1,0-5.321,0c0,2.444-1.278,4.3-3.643,5.722a21.773,21.773,0,0,1-19.321,0c-2.365-1.423-3.643-3.277-3.643-5.722a2.661,2.661,0,1,0-5.321,0c0,2.444-1.278,4.3-3.643,5.722a21.773,21.773,0,0,1-19.321,0c-2.365-1.423-3.643-3.277-3.643-5.722a2.661,2.661,0,1,0-5.322,0c0,2.444-1.277,4.3-3.642,5.722a19.215,19.215,0,0,1-9.661,2.261,19.215,19.215,0,0,1-9.661-2.261c-2.365-1.423-3.643-3.277-3.643-5.722a2.661,2.661,0,1,0-5.322,0c0,2.444-1.277,4.3-3.642,5.722a19.215,19.215,0,0,1-9.661,2.261,19.215,19.215,0,0,1-9.661-2.261c-2.365-1.423-3.643-3.277-3.643-5.722a2.661,2.661,0,1,0-5.321,0c0,2.444-1.278,4.3-3.643,5.722a19.215,19.215,0,0,1-9.661,2.261,19.215,19.215,0,0,1-9.661-2.261c-2.365-1.423-3.643-3.277-3.643-5.722,0-2.337,1.82-5.934,3.757-8.772a42.206,42.206,0,0,1,3.536-4.531Zm21.977,13.3a9.361,9.361,0,0,0,4.932,8,21.577,21.577,0,0,0,11.032,2.645,21.577,21.577,0,0,0,11.032-2.645,9.361,9.361,0,0,0,4.932-8,9.361,9.361,0,0,0,4.932,8,21.577,21.577,0,0,0,11.032,2.645,21.577,21.577,0,0,0,11.032-2.645,9.361,9.361,0,0,0,4.932-8,9.361,9.361,0,0,0,4.932,8,21.577,21.577,0,0,0,11.032,2.645,21.577,21.577,0,0,0,11.032-2.645,9.361,9.361,0,0,0,4.932-8,9.361,9.361,0,0,0,4.932,8,24.331,24.331,0,0,0,22.065,0,9.361,9.361,0,0,0,4.932-8,9.361,9.361,0,0,0,4.932,8,21.577,21.577,0,0,0,11.032,2.645c.908,0,1.791-.059,2.661-.14v8.174a10.664,10.664,0,0,1-10.591,10.643H37.9A10.664,10.664,0,0,1,27.3,172.37V164.2c.87.081,1.752.14,2.661.14A21.577,21.577,0,0,0,41,161.692a9.361,9.361,0,0,0,4.928-8Z" transform="translate(786.692 766.553)"/>
      <path id="hamburgerBg-2" data-name="hamburgerBg" d="M109.784,18c-57.643,0-87.8,28.107-87.8,55.874v2.8h0a6.679,6.679,0,0,0-5.316,6.517v18.625a6.658,6.658,0,0,0,4.324,6.2,19.8,19.8,0,0,0,.78,30.816,47.338,47.338,0,0,0-3.539,4.594C16.171,146.435,14,150.154,14,153.694a9.361,9.361,0,0,0,4.932,8,16.431,16.431,0,0,0,3.05,1.372v9.307a16,16,0,0,0,15.964,15.912H181.622a16.006,16.006,0,0,0,15.964-15.912v-9.307a16.43,16.43,0,0,0,3.05-1.372,9.361,9.361,0,0,0,4.932-8c0-3.541-2.171-7.259-4.225-10.269a47.348,47.348,0,0,0-3.539-4.594,19.8,19.8,0,0,0,.78-30.816,6.658,6.658,0,0,0,4.324-6.2V83.186a6.683,6.683,0,0,0-5.321-6.517v-2.8C197.586,46.107,167.428,18,109.784,18Zm0,5.321c54.15,0,82.481,25.431,82.481,50.553v2.661H27.3V73.874C27.3,48.752,55.634,23.321,109.784,23.321ZM80.517,39.285a5.321,5.321,0,1,0,5.321,5.321,5.321,5.321,0,0,0-5.321-5.321Zm0,2.661a2.641,2.641,0,1,1-1.888.773,2.661,2.661,0,0,1,1.888-.773ZM69.874,52.589A5.321,5.321,0,1,0,75.2,57.91,5.321,5.321,0,0,0,69.874,52.589Zm21.285,0A5.321,5.321,0,1,0,96.48,57.91a5.321,5.321,0,0,0-5.321-5.321Zm-21.285,2.66a2.641,2.641,0,1,1-1.888.773,2.661,2.661,0,0,1,1.888-.773Zm21.285,0a2.641,2.641,0,1,1-1.886.774,2.661,2.661,0,0,1,1.886-.774ZM23.312,79.2H196.256a3.969,3.969,0,0,1,3.991,3.991v18.625a3.969,3.969,0,0,1-3.991,3.991H23.312a3.969,3.969,0,0,1-3.991-3.991V83.186A3.969,3.969,0,0,1,23.312,79.2Zm21.831,29.267H154.616a295.432,295.432,0,0,0-38.538,7.888,1.33,1.33,0,1,0,.717,2.562,280.084,280.084,0,0,1,70.336-10.367,14.631,14.631,0,0,1-1.517,29.184H33.955a14.626,14.626,0,0,1-2.063-29.106c12.731.8,23.882,6.094,32.048,11.5a88.273,88.273,0,0,1,10.43,8.1c2.45,2.22,3.891,3.816,3.825,3.741a1.33,1.33,0,0,0,1.58.312s3.866-1.9,10.544-4.531a1.33,1.33,0,1,0-.977-2.474c-6.2,2.448-9.272,3.95-9.863,4.235a44.165,44.165,0,0,0-3.321-3.253,90.809,90.809,0,0,0-10.746-8.346,77.039,77.039,0,0,0-20.269-9.449Zm57.922,11.9a1.331,1.331,0,0,0-.353.073c-1.876.623-3.667,1.238-5.347,1.835a1.33,1.33,0,1,0,.894,2.5c1.662-.59,3.436-1.2,5.3-1.814a1.33,1.33,0,0,0-.488-2.6ZM23.951,140.391H195.617a42.2,42.2,0,0,1,3.534,4.531c1.937,2.838,3.757,6.435,3.757,8.772,0,2.444-1.278,4.3-3.643,5.722a21.773,21.773,0,0,1-19.321,0c-2.365-1.423-3.643-3.277-3.643-5.722a2.661,2.661,0,1,0-5.321,0c0,2.444-1.278,4.3-3.643,5.722a21.773,21.773,0,0,1-19.321,0c-2.365-1.423-3.643-3.277-3.643-5.722a2.661,2.661,0,1,0-5.321,0c0,2.444-1.278,4.3-3.643,5.722a21.773,21.773,0,0,1-19.321,0c-2.365-1.423-3.643-3.277-3.643-5.722a2.661,2.661,0,1,0-5.322,0c0,2.444-1.277,4.3-3.642,5.722a19.215,19.215,0,0,1-9.661,2.261,19.215,19.215,0,0,1-9.661-2.261c-2.365-1.423-3.643-3.277-3.643-5.722a2.661,2.661,0,1,0-5.322,0c0,2.444-1.277,4.3-3.642,5.722a19.215,19.215,0,0,1-9.661,2.261,19.215,19.215,0,0,1-9.661-2.261c-2.365-1.423-3.643-3.277-3.643-5.722a2.661,2.661,0,1,0-5.321,0c0,2.444-1.278,4.3-3.643,5.722a19.215,19.215,0,0,1-9.661,2.261,19.215,19.215,0,0,1-9.661-2.261c-2.365-1.423-3.643-3.277-3.643-5.722,0-2.337,1.82-5.934,3.757-8.772a42.206,42.206,0,0,1,3.536-4.531Zm21.977,13.3a9.361,9.361,0,0,0,4.932,8,21.577,21.577,0,0,0,11.032,2.645,21.577,21.577,0,0,0,11.032-2.645,9.361,9.361,0,0,0,4.932-8,9.361,9.361,0,0,0,4.932,8,21.577,21.577,0,0,0,11.032,2.645,21.577,21.577,0,0,0,11.032-2.645,9.361,9.361,0,0,0,4.932-8,9.361,9.361,0,0,0,4.932,8,21.577,21.577,0,0,0,11.032,2.645,21.577,21.577,0,0,0,11.032-2.645,9.361,9.361,0,0,0,4.932-8,9.361,9.361,0,0,0,4.932,8,24.331,24.331,0,0,0,22.065,0,9.361,9.361,0,0,0,4.932-8,9.361,9.361,0,0,0,4.932,8,21.577,21.577,0,0,0,11.032,2.645c.908,0,1.791-.059,2.661-.14v8.174a10.664,10.664,0,0,1-10.591,10.643H37.9A10.664,10.664,0,0,1,27.3,172.37V164.2c.87.081,1.752.14,2.661.14A21.577,21.577,0,0,0,41,161.692a9.361,9.361,0,0,0,4.928-8Z" transform="translate(1665.898 172.854)"/>
      <path id="hamburgerBg-3" data-name="hamburgerBg" d="M109.784,18c-57.643,0-87.8,28.107-87.8,55.874v2.8h0a6.679,6.679,0,0,0-5.316,6.517v18.625a6.658,6.658,0,0,0,4.324,6.2,19.8,19.8,0,0,0,.78,30.816,47.338,47.338,0,0,0-3.539,4.594C16.171,146.435,14,150.154,14,153.694a9.361,9.361,0,0,0,4.932,8,16.431,16.431,0,0,0,3.05,1.372v9.307a16,16,0,0,0,15.964,15.912H181.622a16.006,16.006,0,0,0,15.964-15.912v-9.307a16.43,16.43,0,0,0,3.05-1.372,9.361,9.361,0,0,0,4.932-8c0-3.541-2.171-7.259-4.225-10.269a47.348,47.348,0,0,0-3.539-4.594,19.8,19.8,0,0,0,.78-30.816,6.658,6.658,0,0,0,4.324-6.2V83.186a6.683,6.683,0,0,0-5.321-6.517v-2.8C197.586,46.107,167.428,18,109.784,18Zm0,5.321c54.15,0,82.481,25.431,82.481,50.553v2.661H27.3V73.874C27.3,48.752,55.634,23.321,109.784,23.321ZM80.517,39.285a5.321,5.321,0,1,0,5.321,5.321,5.321,5.321,0,0,0-5.321-5.321Zm0,2.661a2.641,2.641,0,1,1-1.888.773,2.661,2.661,0,0,1,1.888-.773ZM69.874,52.589A5.321,5.321,0,1,0,75.2,57.91,5.321,5.321,0,0,0,69.874,52.589Zm21.285,0A5.321,5.321,0,1,0,96.48,57.91a5.321,5.321,0,0,0-5.321-5.321Zm-21.285,2.66a2.641,2.641,0,1,1-1.888.773,2.661,2.661,0,0,1,1.888-.773Zm21.285,0a2.641,2.641,0,1,1-1.886.774,2.661,2.661,0,0,1,1.886-.774ZM23.312,79.2H196.256a3.969,3.969,0,0,1,3.991,3.991v18.625a3.969,3.969,0,0,1-3.991,3.991H23.312a3.969,3.969,0,0,1-3.991-3.991V83.186A3.969,3.969,0,0,1,23.312,79.2Zm21.831,29.267H154.616a295.432,295.432,0,0,0-38.538,7.888,1.33,1.33,0,1,0,.717,2.562,280.084,280.084,0,0,1,70.336-10.367,14.631,14.631,0,0,1-1.517,29.184H33.955a14.626,14.626,0,0,1-2.063-29.106c12.731.8,23.882,6.094,32.048,11.5a88.273,88.273,0,0,1,10.43,8.1c2.45,2.22,3.891,3.816,3.825,3.741a1.33,1.33,0,0,0,1.58.312s3.866-1.9,10.544-4.531a1.33,1.33,0,1,0-.977-2.474c-6.2,2.448-9.272,3.95-9.863,4.235a44.165,44.165,0,0,0-3.321-3.253,90.809,90.809,0,0,0-10.746-8.346,77.039,77.039,0,0,0-20.269-9.449Zm57.922,11.9a1.331,1.331,0,0,0-.353.073c-1.876.623-3.667,1.238-5.347,1.835a1.33,1.33,0,1,0,.894,2.5c1.662-.59,3.436-1.2,5.3-1.814a1.33,1.33,0,0,0-.488-2.6ZM23.951,140.391H195.617a42.2,42.2,0,0,1,3.534,4.531c1.937,2.838,3.757,6.435,3.757,8.772,0,2.444-1.278,4.3-3.643,5.722a21.773,21.773,0,0,1-19.321,0c-2.365-1.423-3.643-3.277-3.643-5.722a2.661,2.661,0,1,0-5.321,0c0,2.444-1.278,4.3-3.643,5.722a21.773,21.773,0,0,1-19.321,0c-2.365-1.423-3.643-3.277-3.643-5.722a2.661,2.661,0,1,0-5.321,0c0,2.444-1.278,4.3-3.643,5.722a21.773,21.773,0,0,1-19.321,0c-2.365-1.423-3.643-3.277-3.643-5.722a2.661,2.661,0,1,0-5.322,0c0,2.444-1.277,4.3-3.642,5.722a19.215,19.215,0,0,1-9.661,2.261,19.215,19.215,0,0,1-9.661-2.261c-2.365-1.423-3.643-3.277-3.643-5.722a2.661,2.661,0,1,0-5.322,0c0,2.444-1.277,4.3-3.642,5.722a19.215,19.215,0,0,1-9.661,2.261,19.215,19.215,0,0,1-9.661-2.261c-2.365-1.423-3.643-3.277-3.643-5.722a2.661,2.661,0,1,0-5.321,0c0,2.444-1.278,4.3-3.643,5.722a19.215,19.215,0,0,1-9.661,2.261,19.215,19.215,0,0,1-9.661-2.261c-2.365-1.423-3.643-3.277-3.643-5.722,0-2.337,1.82-5.934,3.757-8.772a42.206,42.206,0,0,1,3.536-4.531Zm21.977,13.3a9.361,9.361,0,0,0,4.932,8,21.577,21.577,0,0,0,11.032,2.645,21.577,21.577,0,0,0,11.032-2.645,9.361,9.361,0,0,0,4.932-8,9.361,9.361,0,0,0,4.932,8,21.577,21.577,0,0,0,11.032,2.645,21.577,21.577,0,0,0,11.032-2.645,9.361,9.361,0,0,0,4.932-8,9.361,9.361,0,0,0,4.932,8,21.577,21.577,0,0,0,11.032,2.645,21.577,21.577,0,0,0,11.032-2.645,9.361,9.361,0,0,0,4.932-8,9.361,9.361,0,0,0,4.932,8,24.331,24.331,0,0,0,22.065,0,9.361,9.361,0,0,0,4.932-8,9.361,9.361,0,0,0,4.932,8,21.577,21.577,0,0,0,11.032,2.645c.908,0,1.791-.059,2.661-.14v8.174a10.664,10.664,0,0,1-10.591,10.643H37.9A10.664,10.664,0,0,1,27.3,172.37V164.2c.87.081,1.752.14,2.661.14A21.577,21.577,0,0,0,41,161.692a9.361,9.361,0,0,0,4.928-8Z" transform="translate(1442.413 653.854)"/>
      <path id="hamburgerBg-4" data-name="hamburgerBg" d="M127.422,18C59.164,18,23.454,51.283,23.454,84.163v3.316h-.006A7.909,7.909,0,0,0,17.153,95.2V117.25a7.884,7.884,0,0,0,5.12,7.342,23.446,23.446,0,0,0,.924,36.491,56.055,56.055,0,0,0-4.191,5.44C16.571,170.086,14,174.489,14,178.681a11.085,11.085,0,0,0,5.84,9.473,19.457,19.457,0,0,0,3.612,1.625V200.8a18.946,18.946,0,0,0,18.9,18.842H212.489a18.953,18.953,0,0,0,18.9-18.842V189.779A19.456,19.456,0,0,0,235,188.154a11.085,11.085,0,0,0,5.84-9.473c0-4.193-2.571-8.6-5-12.16a56.064,56.064,0,0,0-4.191-5.44,23.446,23.446,0,0,0,.924-36.491,7.884,7.884,0,0,0,5.12-7.342V95.19a7.914,7.914,0,0,0-6.3-7.717V84.157C231.392,51.283,195.681,18,127.422,18Zm0,6.3c64.121,0,97.669,30.114,97.669,59.862v3.151H29.749V84.163C29.749,54.415,63.3,24.3,127.422,24.3ZM92.766,43.2a6.3,6.3,0,1,0,6.3,6.3,6.3,6.3,0,0,0-6.3-6.3Zm0,3.151a3.127,3.127,0,1,1-2.235.916,3.151,3.151,0,0,1,2.235-.916Zm-12.6,12.6a6.3,6.3,0,1,0,6.307,6.3A6.3,6.3,0,0,0,80.163,58.958Zm25.2,0a6.3,6.3,0,1,0,6.3,6.3,6.3,6.3,0,0,0-6.3-6.3Zm-25.2,3.15a3.127,3.127,0,1,1-2.235.916,3.151,3.151,0,0,1,2.235-.916Zm25.2,0a3.127,3.127,0,1,1-2.233.916,3.151,3.151,0,0,1,2.233-.916ZM25.027,90.47H229.817a4.7,4.7,0,0,1,4.726,4.726V117.25a4.7,4.7,0,0,1-4.726,4.726H25.027A4.7,4.7,0,0,1,20.3,117.25V95.19a4.7,4.7,0,0,1,4.726-4.72Zm25.851,34.656H180.51a349.836,349.836,0,0,0-45.635,9.34,1.575,1.575,0,1,0,.849,3.034,331.66,331.66,0,0,1,83.288-12.276,17.325,17.325,0,0,1-1.8,34.558H37.63a17.319,17.319,0,0,1-2.443-34.466c15.075.947,28.28,7.216,37.949,13.618a104.527,104.527,0,0,1,12.351,9.592c2.9,2.629,4.607,4.519,4.529,4.43a1.575,1.575,0,0,0,1.871.369s4.578-2.25,12.486-5.365a1.575,1.575,0,1,0-1.157-2.93c-7.342,2.9-10.979,4.677-11.679,5.015a52.3,52.3,0,0,0-3.933-3.852,107.53,107.53,0,0,0-12.725-9.883,91.225,91.225,0,0,0-24-11.189Zm68.588,14.091a1.576,1.576,0,0,0-.418.086c-2.221.738-4.342,1.466-6.332,2.173a1.575,1.575,0,1,0,1.059,2.96c1.968-.7,4.069-1.421,6.276-2.148a1.575,1.575,0,0,0-.578-3.079ZM25.783,162.929H229.061a49.974,49.974,0,0,1,4.185,5.365c2.294,3.361,4.449,7.62,4.449,10.387,0,2.894-1.513,5.092-4.314,6.776a25.782,25.782,0,0,1-22.879,0c-2.8-1.685-4.314-3.88-4.314-6.776a3.151,3.151,0,1,0-6.3,0c0,2.894-1.513,5.092-4.313,6.776a25.782,25.782,0,0,1-22.879,0c-2.8-1.685-4.314-3.88-4.314-6.776a3.151,3.151,0,1,0-6.3,0c0,2.894-1.513,5.092-4.313,6.776a25.782,25.782,0,0,1-22.879,0c-2.8-1.685-4.314-3.88-4.314-6.776a3.151,3.151,0,1,0-6.3,0c0,2.894-1.513,5.092-4.313,6.776a22.753,22.753,0,0,1-11.44,2.677,22.753,22.753,0,0,1-11.44-2.677c-2.8-1.685-4.314-3.88-4.314-6.776a3.151,3.151,0,1,0-6.3,0c0,2.894-1.513,5.092-4.313,6.776a22.753,22.753,0,0,1-11.44,2.677,22.753,22.753,0,0,1-11.44-2.677c-2.8-1.685-4.314-3.88-4.314-6.776a3.151,3.151,0,1,0-6.3,0c0,2.894-1.513,5.092-4.313,6.776a22.753,22.753,0,0,1-11.44,2.677,22.753,22.753,0,0,1-11.44-2.677c-2.8-1.685-4.314-3.88-4.314-6.776,0-2.767,2.155-7.027,4.449-10.387a49.977,49.977,0,0,1,4.187-5.365Zm26.024,15.749a11.085,11.085,0,0,0,5.84,9.473,25.55,25.55,0,0,0,13.063,3.132,25.55,25.55,0,0,0,13.063-3.132,11.085,11.085,0,0,0,5.84-9.473,11.085,11.085,0,0,0,5.84,9.473,25.55,25.55,0,0,0,13.063,3.132,25.55,25.55,0,0,0,13.063-3.132,11.085,11.085,0,0,0,5.84-9.473,11.085,11.085,0,0,0,5.84,9.473,25.55,25.55,0,0,0,13.063,3.132,25.55,25.55,0,0,0,13.063-3.132,11.085,11.085,0,0,0,5.84-9.473,11.085,11.085,0,0,0,5.84,9.473,28.811,28.811,0,0,0,26.128,0,11.085,11.085,0,0,0,5.84-9.473,11.085,11.085,0,0,0,5.84,9.473,25.55,25.55,0,0,0,13.064,3.132c1.075,0,2.121-.07,3.151-.166V200.8a12.628,12.628,0,0,1-12.541,12.6H42.3a12.628,12.628,0,0,1-12.552-12.6v-9.674c1.03.1,2.075.166,3.151.166a25.55,25.55,0,0,0,13.072-3.136,11.085,11.085,0,0,0,5.835-9.471Z" transform="matrix(0.921, 0.391, -0.391, 0.921, 1342.343, 245.155)"/>
      <path id="hamburgerBg-5" data-name="hamburgerBg" d="M49.854,0c-30,0-45.7,14.629-45.7,29.081v1.456h0a3.476,3.476,0,0,0-2.766,3.392v9.694a3.465,3.465,0,0,0,2.251,3.229A10.311,10.311,0,0,0,4.046,62.89,24.636,24.636,0,0,0,2.2,65.281,10.379,10.379,0,0,0,0,70.625a4.872,4.872,0,0,0,2.567,4.162,8.547,8.547,0,0,0,1.587.714v4.843a8.326,8.326,0,0,0,8.308,8.276H87.236a8.33,8.33,0,0,0,8.308-8.276V75.5a8.548,8.548,0,0,0,1.587-.714A4.872,4.872,0,0,0,99.7,70.625a10.379,10.379,0,0,0-2.2-5.344,24.641,24.641,0,0,0-1.842-2.391,10.311,10.311,0,0,0,.407-16.039,3.465,3.465,0,0,0,2.251-3.229v-9.7a3.479,3.479,0,0,0-2.769-3.392V29.081C95.552,14.629,79.854,0,49.854,0Zm0,2.769c28.183,0,42.929,13.236,42.929,26.311v1.385H6.919V29.081C6.919,16.009,21.669,2.769,49.854,2.769ZM34.62,11.079a2.769,2.769,0,1,0,2.769,2.769A2.769,2.769,0,0,0,34.62,11.079Zm0,1.385a1.372,1.372,0,1,1-.98.4,1.385,1.385,0,0,1,.98-.4ZM29.081,18a2.769,2.769,0,1,0,2.769,2.769A2.769,2.769,0,0,0,29.081,18ZM40.16,18a2.769,2.769,0,1,0,2.769,2.769A2.769,2.769,0,0,0,40.16,18ZM29.081,19.387a1.374,1.374,0,1,1-.983.4A1.385,1.385,0,0,1,29.081,19.387Zm11.079,0a1.374,1.374,0,1,1-.983.4,1.385,1.385,0,0,1,.983-.4ZM4.846,31.85H94.86a2.066,2.066,0,0,1,2.077,2.077v9.694A2.066,2.066,0,0,1,94.86,45.7H4.846a2.066,2.066,0,0,1-2.077-2.077V33.927A2.066,2.066,0,0,1,4.846,31.85ZM16.21,47.078H73.192a153.763,153.763,0,0,0-20.063,4.111.692.692,0,0,0,.373,1.334,145.776,145.776,0,0,1,36.608-5.4,7.615,7.615,0,0,1-.79,15.2H10.386A7.612,7.612,0,0,1,9.312,47.173a34.7,34.7,0,0,1,16.679,5.986,45.942,45.942,0,0,1,5.427,4.214c1.275,1.156,2.026,1.986,1.99,1.947a.692.692,0,0,0,.822.163s2.012-.988,5.488-2.358a.692.692,0,0,0-.509-1.288c-3.229,1.274-4.826,2.055-5.134,2.2a22.984,22.984,0,0,0-1.728-1.693,47.262,47.262,0,0,0-5.594-4.341A40.1,40.1,0,0,0,16.21,47.078Zm30.146,6.191a.693.693,0,0,0-.185.038c-.977.324-1.909.644-2.783.95a.692.692,0,1,0,.465,1.3c.864-.307,1.788-.623,2.755-.95a.692.692,0,0,0-.254-1.357ZM5.18,63.695H94.526a21.964,21.964,0,0,1,1.84,2.358,10.04,10.04,0,0,1,1.955,4.565,3.381,3.381,0,0,1-1.9,2.978,11.333,11.333,0,0,1-10.056,0,3.381,3.381,0,0,1-1.9-2.978,1.385,1.385,0,0,0-2.769,0A3.381,3.381,0,0,1,79.8,73.6a11.333,11.333,0,0,1-10.056,0,3.381,3.381,0,0,1-1.9-2.978,1.385,1.385,0,0,0-2.769,0,3.381,3.381,0,0,1-1.9,2.978,11.333,11.333,0,0,1-10.056,0,3.381,3.381,0,0,1-1.9-2.978,1.385,1.385,0,0,0-2.769,0,3.381,3.381,0,0,1-1.9,2.978,10,10,0,0,1-5.028,1.176A10,10,0,0,1,36.494,73.6a3.381,3.381,0,0,1-1.9-2.978,1.385,1.385,0,0,0-2.769,0,3.381,3.381,0,0,1-1.9,2.978A10,10,0,0,1,24.9,74.772,10,10,0,0,1,19.87,73.6a3.381,3.381,0,0,1-1.9-2.978,1.385,1.385,0,0,0-2.769,0A3.381,3.381,0,0,1,13.3,73.6a10,10,0,0,1-5.028,1.176A10,10,0,0,1,3.247,73.6a3.381,3.381,0,0,1-1.9-2.978A10.04,10.04,0,0,1,3.3,66.053,21.964,21.964,0,0,1,5.18,63.7Zm11.438,6.919a4.872,4.872,0,0,0,2.567,4.162,11.229,11.229,0,0,0,5.742,1.377,11.229,11.229,0,0,0,5.742-1.377,4.872,4.872,0,0,0,2.571-4.152,4.872,4.872,0,0,0,2.567,4.162,11.23,11.23,0,0,0,5.742,1.377,11.23,11.23,0,0,0,5.742-1.377,4.872,4.872,0,0,0,2.567-4.162,4.872,4.872,0,0,0,2.567,4.162,12.664,12.664,0,0,0,11.485,0,4.872,4.872,0,0,0,2.567-4.162,4.872,4.872,0,0,0,2.567,4.162,12.664,12.664,0,0,0,11.485,0,4.872,4.872,0,0,0,2.567-4.162,4.872,4.872,0,0,0,2.567,4.162A11.23,11.23,0,0,0,91.4,76.164c.472,0,.932-.031,1.385-.073v4.255A5.55,5.55,0,0,1,87.27,85.88H12.441a5.55,5.55,0,0,1-5.522-5.534V76.091c.453.042.912.073,1.385.073a11.229,11.229,0,0,0,5.742-1.377,4.872,4.872,0,0,0,2.572-4.162Z" transform="translate(1552.197 61.382) rotate(-30)"/>
      <path id="hamburgerBg-6" data-name="hamburgerBg" d="M95.784,0c-57.643,0-87.8,28.107-87.8,55.874v2.8h0a6.679,6.679,0,0,0-5.316,6.517V83.816a6.658,6.658,0,0,0,4.324,6.2,19.8,19.8,0,0,0,.78,30.816,47.338,47.338,0,0,0-3.539,4.594C2.171,128.435,0,132.154,0,135.694a9.361,9.361,0,0,0,4.932,8,16.431,16.431,0,0,0,3.05,1.372v9.307a16,16,0,0,0,15.964,15.912H167.622a16.006,16.006,0,0,0,15.964-15.912v-9.307a16.43,16.43,0,0,0,3.05-1.372,9.361,9.361,0,0,0,4.932-8c0-3.541-2.171-7.259-4.225-10.269a47.348,47.348,0,0,0-3.539-4.594,19.8,19.8,0,0,0,.78-30.816,6.658,6.658,0,0,0,4.324-6.2V65.186a6.683,6.683,0,0,0-5.321-6.517v-2.8C183.586,28.107,153.428,0,95.784,0Zm0,5.321c54.15,0,82.481,25.431,82.481,50.553v2.661H13.3V55.874C13.3,30.752,41.634,5.321,95.784,5.321ZM66.517,21.285a5.321,5.321,0,1,0,5.321,5.321,5.321,5.321,0,0,0-5.321-5.321Zm0,2.661a2.641,2.641,0,1,1-1.888.773,2.661,2.661,0,0,1,1.888-.773ZM55.874,34.589A5.321,5.321,0,1,0,61.2,39.91,5.321,5.321,0,0,0,55.874,34.589Zm21.285,0A5.321,5.321,0,1,0,82.48,39.91a5.321,5.321,0,0,0-5.321-5.321Zm-21.285,2.66a2.641,2.641,0,1,1-1.888.773,2.661,2.661,0,0,1,1.888-.773Zm21.285,0a2.641,2.641,0,1,1-1.886.774,2.661,2.661,0,0,1,1.886-.774ZM9.312,61.2H182.256a3.969,3.969,0,0,1,3.991,3.991V83.816a3.969,3.969,0,0,1-3.991,3.991H9.312a3.969,3.969,0,0,1-3.991-3.991V65.186A3.969,3.969,0,0,1,9.312,61.2ZM31.143,90.467H140.616a295.432,295.432,0,0,0-38.538,7.888,1.33,1.33,0,1,0,.717,2.562A280.084,280.084,0,0,1,173.131,90.55a14.631,14.631,0,0,1-1.517,29.184H19.955a14.626,14.626,0,0,1-2.063-29.106c12.731.8,23.882,6.094,32.048,11.5a88.273,88.273,0,0,1,10.43,8.1c2.45,2.22,3.891,3.816,3.825,3.741a1.33,1.33,0,0,0,1.58.312s3.866-1.9,10.544-4.531a1.33,1.33,0,1,0-.977-2.474c-6.2,2.448-9.272,3.95-9.863,4.235a44.165,44.165,0,0,0-3.321-3.253,90.809,90.809,0,0,0-10.746-8.346,77.039,77.039,0,0,0-20.269-9.449Zm57.922,11.9a1.331,1.331,0,0,0-.353.073c-1.876.623-3.667,1.238-5.347,1.835a1.33,1.33,0,1,0,.894,2.5c1.662-.59,3.436-1.2,5.3-1.814a1.33,1.33,0,0,0-.488-2.6ZM9.951,122.391H181.617a42.2,42.2,0,0,1,3.534,4.531c1.937,2.838,3.757,6.435,3.757,8.772,0,2.444-1.278,4.3-3.643,5.722a21.773,21.773,0,0,1-19.321,0c-2.365-1.423-3.643-3.277-3.643-5.722a2.661,2.661,0,1,0-5.321,0c0,2.444-1.278,4.3-3.643,5.722a21.773,21.773,0,0,1-19.321,0c-2.365-1.423-3.643-3.277-3.643-5.722a2.661,2.661,0,1,0-5.321,0c0,2.444-1.278,4.3-3.643,5.722a21.773,21.773,0,0,1-19.321,0c-2.365-1.423-3.643-3.277-3.643-5.722a2.661,2.661,0,1,0-5.322,0c0,2.444-1.277,4.3-3.642,5.722a19.215,19.215,0,0,1-9.661,2.261,19.215,19.215,0,0,1-9.661-2.261c-2.365-1.423-3.643-3.277-3.643-5.722a2.661,2.661,0,1,0-5.322,0c0,2.444-1.277,4.3-3.642,5.722a19.215,19.215,0,0,1-9.661,2.261,19.215,19.215,0,0,1-9.661-2.261c-2.365-1.423-3.643-3.277-3.643-5.722a2.661,2.661,0,1,0-5.321,0c0,2.444-1.278,4.3-3.643,5.722a19.215,19.215,0,0,1-9.661,2.261A19.215,19.215,0,0,1,6.3,141.416c-2.365-1.423-3.643-3.277-3.643-5.722,0-2.337,1.82-5.934,3.757-8.772a42.206,42.206,0,0,1,3.536-4.531Zm21.977,13.3a9.361,9.361,0,0,0,4.932,8,21.577,21.577,0,0,0,11.032,2.645,21.577,21.577,0,0,0,11.032-2.645,9.361,9.361,0,0,0,4.932-8,9.361,9.361,0,0,0,4.932,8,21.577,21.577,0,0,0,11.032,2.645,21.577,21.577,0,0,0,11.032-2.645,9.361,9.361,0,0,0,4.932-8,9.361,9.361,0,0,0,4.932,8,21.577,21.577,0,0,0,11.032,2.645,21.577,21.577,0,0,0,11.032-2.645,9.361,9.361,0,0,0,4.932-8,9.361,9.361,0,0,0,4.932,8,24.331,24.331,0,0,0,22.065,0,9.361,9.361,0,0,0,4.932-8,9.361,9.361,0,0,0,4.932,8,21.577,21.577,0,0,0,11.032,2.645c.908,0,1.791-.059,2.661-.14v8.174a10.664,10.664,0,0,1-10.591,10.643H23.9A10.664,10.664,0,0,1,13.3,154.37V146.2c.87.081,1.752.14,2.661.14A21.577,21.577,0,0,0,27,143.692a9.361,9.361,0,0,0,4.928-8Z" transform="translate(1280.187 1035.416) rotate(-30)"/>
      <path id="milksBg" d="M85.534,0A11.3,11.3,0,0,1,96.746,10.259a16.363,16.363,0,0,1,13.945,16.156,15.61,15.61,0,0,1-.742,3.975,18.367,18.367,0,0,1,2-.2,18.887,18.887,0,0,1,18.868,18.868V52.83h2.516a2.516,2.516,0,0,1,2.516,2.515c0,35.355-2.812,61.357-9.09,80.35-5.765,17.442-14.641,29.02-26.774,35.9a8.212,8.212,0,0,1,.167,5.945,37.133,37.133,0,0,1,20.475,20.4,2.516,2.516,0,0,1-2.383,3.312H52.835a2.516,2.516,0,0,1-2.388-3.312,37.117,37.117,0,0,1,20.47-20.4,8.212,8.212,0,0,1,.167-5.945c-12.132-6.883-21.009-18.46-26.774-35.9-6.278-18.994-9.09-45-9.09-80.35a2.516,2.516,0,0,1,2.515-2.516h2.516V49.056A18.756,18.756,0,0,1,43.617,38.33L39.534,24.445a2.538,2.538,0,0,0-2.412-1.8H1.258A1.258,1.258,0,0,1,0,21.384V13.836a1.258,1.258,0,0,1,1.258-1.258H37.121A12.629,12.629,0,0,1,49.184,21.6h0l2.924,9.945a18.739,18.739,0,0,1,7.011-1.366c.5,0,.981.055,1.469.093A17.3,17.3,0,0,1,74.355,10.6,11.267,11.267,0,0,1,85.534,0Zm0,2.516a8.787,8.787,0,0,0-8.8,8.8c0-.158.02-.1.02.206a1.258,1.258,0,0,1-1.066,1.248A14.943,14.943,0,0,0,63.217,30.66a18.884,18.884,0,0,1,11.375,7.611,1.26,1.26,0,1,1-2.064,1.445,16.331,16.331,0,0,0-10.5-6.722,1.258,1.258,0,0,1-.236-.044,15.836,15.836,0,0,0-9.881,1.435l-.049.029A16.374,16.374,0,0,0,46,39.318q-.037.051-.079.1l-.01.01a16.269,16.269,0,0,0-3.15,9.63V52.83H128.3V49.056a16.359,16.359,0,0,0-19.624-16.023,1.258,1.258,0,0,1-1.425-1.68A13.8,13.8,0,0,0,95.68,12.647a1.258,1.258,0,0,1-.285-.015c-.35-.026-.7-.054-1.056-.054a13.738,13.738,0,0,0-9.223,3.543,1.258,1.258,0,1,1-1.681-1.872,16.285,16.285,0,0,1,10.78-4.181A8.761,8.761,0,0,0,85.534,2.516ZM35.22,15.094H30.188v5.031H35.22Zm-7.547,0H2.516v5.031H27.673Zm10.063.206v5.031a5.045,5.045,0,0,1,2.393.8l3.729-2.982A9.678,9.678,0,0,0,37.735,15.3ZM45.3,20.214,41.573,23.2c.092.2.309.316.373.536h0l.418,1.42h5.243l-.835-2.84C46.519,21.459,45.759,20.954,45.3,20.214Zm3.046,7.459H43.1l2.447,8.309a18.965,18.965,0,0,1,4.27-3.321ZM99.37,35.22a11.34,11.34,0,0,1,11.321,11.32,1.258,1.258,0,1,1-2.516,0,8.786,8.786,0,0,0-8.8-8.8,8.65,8.65,0,0,0-4.4,1.2,1.258,1.258,0,1,1-1.268-2.172A11.193,11.193,0,0,1,99.37,35.22Zm-8.584,5.017a1.258,1.258,0,0,1,1.027,1.907,8.69,8.69,0,0,0-.934,2.2,1.259,1.259,0,0,1-2.437-.629,11.208,11.208,0,0,1,1.2-2.835,1.258,1.258,0,0,1,1.144-.644Zm39.976,17.625H40.305c.018,4.343.084,8.525.192,12.578H130.57q.162-6.081.192-12.579Zm-.285,15.094H40.59c.83,26.147,3.574,46.268,8.5,61.158C55,151.991,63.763,162.527,76.075,168.553H95c12.312-6.026,21.076-16.561,26.985-34.439,4.915-14.891,7.662-35.014,8.492-61.159Zm-80.7,7.532a1.258,1.258,0,0,1,1.179,1.2c.978,18.427,3.106,33.284,6.466,45a1.258,1.258,0,1,1-2.417.7c-3.437-11.989-5.575-27.014-6.559-45.563a1.258,1.258,0,0,1,1.332-1.341Zm8.982,52.83a1.258,1.258,0,0,1,1.115.826q.484,1.269.988,2.476a1.258,1.258,0,1,1-2.319.973c-.348-.831-.686-1.686-1.017-2.555a1.258,1.258,0,0,1,1.233-1.72Zm4.663,10.063a1.258,1.258,0,0,1,1.115.639,40.466,40.466,0,0,0,10.436,12.092,1.258,1.258,0,1,1-1.513,2,43.054,43.054,0,0,1-11.094-12.829,1.258,1.258,0,0,1,1.056-1.907Zm28.4,27.688H79.244a3.774,3.774,0,1,0,0,7.548h2.339a1.242,1.242,0,0,1,.383,0h7.2a1.059,1.059,0,0,1,.29,0h2.363a3.774,3.774,0,1,0,0-7.547Zm3.39,10.063H91.93a33.917,33.917,0,0,1,6.014,15.094h16.008c-1.816-3.85-6.17-11.4-18.739-15.1Zm-6.476,0H82.33c-.806.861-5.221,5.981-6.633,15.094H95.371c-1.413-9.115-5.828-14.235-6.634-15.1Zm-9.6,0H75.854c-12.569,3.7-16.92,11.246-18.735,15.094h16a33.918,33.918,0,0,1,6.017-15.1Z" transform="translate(1057.822 975.855) rotate(15.009)"/>
      <path id="milksBg-2" data-name="milksBg" d="M85.534,0A11.3,11.3,0,0,1,96.746,10.259a16.363,16.363,0,0,1,13.945,16.156,15.61,15.61,0,0,1-.742,3.975,18.367,18.367,0,0,1,2-.2,18.887,18.887,0,0,1,18.868,18.868V52.83h2.516a2.516,2.516,0,0,1,2.516,2.515c0,35.355-2.812,61.357-9.09,80.35-5.765,17.442-14.641,29.02-26.774,35.9a8.212,8.212,0,0,1,.167,5.945,37.133,37.133,0,0,1,20.475,20.4,2.516,2.516,0,0,1-2.383,3.312H52.835a2.516,2.516,0,0,1-2.388-3.312,37.117,37.117,0,0,1,20.47-20.4,8.212,8.212,0,0,1,.167-5.945c-12.132-6.883-21.009-18.46-26.774-35.9-6.278-18.994-9.09-45-9.09-80.35a2.516,2.516,0,0,1,2.515-2.516h2.516V49.056A18.756,18.756,0,0,1,43.617,38.33L39.534,24.445a2.538,2.538,0,0,0-2.412-1.8H1.258A1.258,1.258,0,0,1,0,21.384V13.836a1.258,1.258,0,0,1,1.258-1.258H37.121A12.629,12.629,0,0,1,49.184,21.6h0l2.924,9.945a18.739,18.739,0,0,1,7.011-1.366c.5,0,.981.055,1.469.093A17.3,17.3,0,0,1,74.355,10.6,11.267,11.267,0,0,1,85.534,0Zm0,2.516a8.787,8.787,0,0,0-8.8,8.8c0-.158.02-.1.02.206a1.258,1.258,0,0,1-1.066,1.248A14.943,14.943,0,0,0,63.217,30.66a18.884,18.884,0,0,1,11.375,7.611,1.26,1.26,0,1,1-2.064,1.445,16.331,16.331,0,0,0-10.5-6.722,1.258,1.258,0,0,1-.236-.044,15.836,15.836,0,0,0-9.881,1.435l-.049.029A16.374,16.374,0,0,0,46,39.318q-.037.051-.079.1l-.01.01a16.269,16.269,0,0,0-3.15,9.63V52.83H128.3V49.056a16.359,16.359,0,0,0-19.624-16.023,1.258,1.258,0,0,1-1.425-1.68A13.8,13.8,0,0,0,95.68,12.647a1.258,1.258,0,0,1-.285-.015c-.35-.026-.7-.054-1.056-.054a13.738,13.738,0,0,0-9.223,3.543,1.258,1.258,0,1,1-1.681-1.872,16.285,16.285,0,0,1,10.78-4.181A8.761,8.761,0,0,0,85.534,2.516ZM35.22,15.094H30.188v5.031H35.22Zm-7.547,0H2.516v5.031H27.673Zm10.063.206v5.031a5.045,5.045,0,0,1,2.393.8l3.729-2.982A9.678,9.678,0,0,0,37.735,15.3ZM45.3,20.214,41.573,23.2c.092.2.309.316.373.536h0l.418,1.42h5.243l-.835-2.84C46.519,21.459,45.759,20.954,45.3,20.214Zm3.046,7.459H43.1l2.447,8.309a18.965,18.965,0,0,1,4.27-3.321ZM99.37,35.22a11.34,11.34,0,0,1,11.321,11.32,1.258,1.258,0,1,1-2.516,0,8.786,8.786,0,0,0-8.8-8.8,8.65,8.65,0,0,0-4.4,1.2,1.258,1.258,0,1,1-1.268-2.172A11.193,11.193,0,0,1,99.37,35.22Zm-8.584,5.017a1.258,1.258,0,0,1,1.027,1.907,8.69,8.69,0,0,0-.934,2.2,1.259,1.259,0,0,1-2.437-.629,11.208,11.208,0,0,1,1.2-2.835,1.258,1.258,0,0,1,1.144-.644Zm39.976,17.625H40.305c.018,4.343.084,8.525.192,12.578H130.57q.162-6.081.192-12.579Zm-.285,15.094H40.59c.83,26.147,3.574,46.268,8.5,61.158C55,151.991,63.763,162.527,76.075,168.553H95c12.312-6.026,21.076-16.561,26.985-34.439,4.915-14.891,7.662-35.014,8.492-61.159Zm-80.7,7.532a1.258,1.258,0,0,1,1.179,1.2c.978,18.427,3.106,33.284,6.466,45a1.258,1.258,0,1,1-2.417.7c-3.437-11.989-5.575-27.014-6.559-45.563a1.258,1.258,0,0,1,1.332-1.341Zm8.982,52.83a1.258,1.258,0,0,1,1.115.826q.484,1.269.988,2.476a1.258,1.258,0,1,1-2.319.973c-.348-.831-.686-1.686-1.017-2.555a1.258,1.258,0,0,1,1.233-1.72Zm4.663,10.063a1.258,1.258,0,0,1,1.115.639,40.466,40.466,0,0,0,10.436,12.092,1.258,1.258,0,1,1-1.513,2,43.054,43.054,0,0,1-11.094-12.829,1.258,1.258,0,0,1,1.056-1.907Zm28.4,27.688H79.244a3.774,3.774,0,1,0,0,7.548h2.339a1.242,1.242,0,0,1,.383,0h7.2a1.059,1.059,0,0,1,.29,0h2.363a3.774,3.774,0,1,0,0-7.547Zm3.39,10.063H91.93a33.917,33.917,0,0,1,6.014,15.094h16.008c-1.816-3.85-6.17-11.4-18.739-15.1Zm-6.476,0H82.33c-.806.861-5.221,5.981-6.633,15.094H95.371c-1.413-9.115-5.828-14.235-6.634-15.1Zm-9.6,0H75.854c-12.569,3.7-16.92,11.246-18.735,15.094h16a33.918,33.918,0,0,1,6.017-15.1Z" transform="translate(1552.581 367.855) rotate(15.009)"/>
      <path id="sandwich" d="M116.765,0c-31.007,0-58.9,6.684-79.793,16.8C26.543,21.838,17.654,27.753,11.214,34.437S.3,49.136.3,57.955c0,5.565,2.2,10.6,5.32,15.119a60.832,60.832,0,0,0-3.08,8.4C.75,87-1.525,92.567,1.415,100.232,5.2,110,15.169,114.4,24.933,115.071a34.387,34.387,0,0,1,2.8,4.759,51.018,51.018,0,0,0,4.76,7.839c2.17,2.87,5.635,6.264,10.639,7.279,4.83.98,8.259-.1,11.479-1.12s6.3-2.38,8.959-3.36a31.583,31.583,0,0,1,6.159-1.68c10.324,10.884,18.758,17.079,27.718,18.759,9.379,1.75,17.743-3.01,22.678-8.12,4.97-5.144,9.064-7.944,11.759-8.959s3.15-.525,3.08-.56a106.047,106.047,0,0,0,16.239,7.839,83.3,83.3,0,0,0,10.079,3.08c3.324.8,6.369,1.75,10.639.839a26.3,26.3,0,0,0,14-8.119c2.9-3.4,5.075-7.14,9.239-12.319a4.162,4.162,0,0,1,1.4-.56c1.75-.35,4.584-.35,7.839-.56,6.474-.42,14.208-.49,21.838-3.64a13.113,13.113,0,0,0,6.719-7.279,15.361,15.361,0,0,0,.839-7.279,38.357,38.357,0,0,0-3.639-11.759,99.673,99.673,0,0,0-6.44-11.759c5.565-5.635,9.519-12.564,9.519-20.438,0-8.819-4.48-16.834-10.919-23.518s-15.329-12.6-25.758-17.639C175.665,6.684,147.772,0,116.765,0Zm0,17.919c28.348,0,54.211,6.4,72.234,15.119,8.994,4.34,15.994,9.414,20.439,14s5.879,8.5,5.879,10.919-1.365,5.18-5.6,8.959-11.129,7.769-20.158,11.2C171.5,84.94,145.532,89.6,116.765,89.6S62.033,84.938,43.972,78.113c-9.029-3.43-15.924-7.419-20.158-11.2s-5.6-6.544-5.6-8.959,1.435-6.334,5.88-10.919,11.444-9.659,20.438-14C62.555,24.323,88.418,17.919,116.765,17.919ZM98.847,26.878a8.959,8.959,0,1,0,8.959,8.959,8.959,8.959,0,0,0-8.959-8.959ZM71.969,35.837A8.959,8.959,0,1,0,80.933,44.8a8.959,8.959,0,0,0-8.964-8.962ZM89.888,53.756a8.959,8.959,0,1,0,8.959,8.959,8.959,8.959,0,0,0-8.959-8.959ZM19.894,86.233a97.434,97.434,0,0,0,17.639,8.68c20.858,7.909,48.646,12.6,79.233,12.6s58.375-4.689,79.234-12.6a109.412,109.412,0,0,0,13.158-5.88,73.959,73.959,0,0,1,4.76,8.4,19.726,19.726,0,0,1,.839,3.08,85.874,85.874,0,0,1-11.479,1.68,75.721,75.721,0,0,0-10.079,1.12c-3.36.665-7.42,1.12-10.92,5.319-5.53,6.65-8.469,11.269-10.079,13.159-1.54,1.785-1.05,1.715-3.639,2.24-.141-.071-1.47-.176-3.08-.56a68.267,68.267,0,0,1-7.839-2.52,106.614,106.614,0,0,1-13.158-6.159c-5.565-3.4-12.529-3.465-18.759-1.12s-12.494,6.685-18.758,13.159c-3.01,3.114-3.4,3.884-6.159,3.36s-9.519-4.27-19.319-14.839c-3.885-4.2-9.729-4.865-13.719-4.48a39.626,39.626,0,0,0-10.359,2.8c-3.115,1.155-5.949,2.38-8.119,3.08a10.836,10.836,0,0,1-2.24.56.941.941,0,0,1-.28-.28,57.074,57.074,0,0,1-3.08-5.6,39.375,39.375,0,0,0-5.04-8.119,17.62,17.62,0,0,0-12.039-6.161c-5.6-.245-7.384-1.645-8.119-3.08.21-.7.175-4.024,1.12-7C19.719,86.793,19.789,86.513,19.894,86.233ZM2.533,123.75c-1.575.8-1.96,3.955-1.96,10.639,0,29.608,52.006,62.435,116.19,62.435s116.191-32.793,116.191-62.435c0-35.7-20.053,27.718-116.191,27.718C35.047,162.107,9.289,120.285,2.533,123.75Zm5.88,46.2a10.489,10.489,0,0,0-1.12.28,8.977,8.977,0,0,0-7,8.959c0,9.1,4.585,17.289,11.2,23.8s15.294,11.864,25.758,16.239c20.963,8.714,48.821,13.718,79.513,13.718s58.55-5,79.513-13.718c10.464-4.375,19.143-9.73,25.758-16.239s11.2-14.7,11.2-23.8a8.96,8.96,0,1,0-17.919,0c0,3.29-1.609,6.719-5.878,10.92s-11.164,8.854-20.158,12.6c-17.954,7.489-43.852,12.319-72.514,12.319s-54.56-4.83-72.514-12.319c-8.994-3.745-15.889-8.4-20.158-12.6s-5.88-7.63-5.88-10.92a8.969,8.969,0,0,0-9.8-9.239Z" transform="translate(1708.41 897.34) rotate(15.009)" fill="none" stroke="#000" stroke-width="3"/>
      <path id="fries" d="M58.063,0c-.629,0-1.138.694-1.139,1.549V40.86L51,41.139,47.874,7.7c-.076-.805-.6-1.394-1.192-1.35a.277.277,0,0,0-.08.012L26.269,9.9a1.524,1.524,0,0,0-.987,1.731l4.31,46.279-2.713.793-4.1-29.125c-.106-.741-.589-1.27-1.143-1.253a.847.847,0,0,0-.191.024L1.333,33.621a1.592,1.592,0,0,0-.9,1.81L5.939,74.373H2.279a2.106,2.106,0,0,0-1.751,1.12,3.951,3.951,0,0,0-.486,2.548l20.49,148.745a3.317,3.317,0,0,0,.983,2.017,1.8,1.8,0,0,0,1.748.441,173.434,173.434,0,0,1,45.047-6.125,173.434,173.434,0,0,1,45.047,6.125,1.8,1.8,0,0,0,1.748-.441,3.317,3.317,0,0,0,.982-2.017L136.58,78.041a3.951,3.951,0,0,0-.486-2.548,2.106,2.106,0,0,0-1.751-1.12h-4.465l6.142-34.342a1.643,1.643,0,0,0-.836-1.87l-19.9-6.6a.858.858,0,0,0-.227-.042c-.541-.03-1.023.464-1.152,1.18l-4.669,26.068-3.2-1.09,3.064-36.96a1.512,1.512,0,0,0-1-1.713L87.718,15.875a.843.843,0,0,0-.111-.012c-.587-.011-1.083.587-1.147,1.38l-1.6,19.265L79.7,35.5V1.549C79.7.693,79.185,0,78.557,0ZM59.2,3.1H77.418V35.05L74.1,34.384a.842.842,0,0,0-.227-.018,1.35,1.35,0,0,0-1.067,1.326L65.7,102.123l-.427-.024-1.494-60a1.838,1.838,0,0,0-.36-1.084A.989.989,0,0,0,62.6,40.6l-3.4.163ZM45.757,9.636l2.957,31.606-6.582.284c-.629.026-1.123.742-1.1,1.6L42.3,94.152l-5.9-36.69c-.135-.836-.742-1.364-1.356-1.18l-3.22.968-4.14-44.473Zm42.841,9.5,18.118,2.778-2.916,35-1.886-.629a.85.85,0,0,0-.338-.042,1.3,1.3,0,0,0-1.041,1.174L93.673,95.139A47.334,47.334,0,0,1,89.19,97.6L95.345,40.17a1.99,1.99,0,0,0-.212-1.152,1.14,1.14,0,0,0-.749-.61l-7.267-1.452ZM20.75,31.685l3.9,27.672-9.619,2.875a1.209,1.209,0,0,0-.717.677,2.028,2.028,0,0,0-.154,1.169l1.659,10.3H8.258l-5.377-38Zm95.1,3.25,17.691,5.871-6,33.567h-6.622l1.717-9.484a1.646,1.646,0,0,0-.832-1.876l-10.353-3.5ZM74.9,37.677l3.313.666a.865.865,0,0,0,.391.079L85.662,39.8l.045.012,7.227,1.447L86.779,98.663a47.981,47.981,0,0,1-18.465,3.6c-.111,0-.21-.017-.32-.018Zm-13.359,6.07L63,101.978a46.93,46.93,0,0,1-18.367-5.8l-1.281-51.6,6.311-.279a.86.86,0,0,0,.783-.036l7.48-.345a.842.842,0,0,0,.374-.012l.013-.006ZM34.426,59.641l5.368,33.385a52.425,52.425,0,0,1-15.13-17.274,2.2,2.2,0,0,0-1.894-1.38H18.153l-1.521-9.448,9.233-2.754a.9.9,0,0,0,.707-.206l4.328-1.27h0a.889.889,0,0,0,.347-.1Zm68.053.03,1.974.66.018.006.044.012.067.024h.009l5.132,1.749.071.024.04.012,10.313,3.492-1.579,8.722H113.85a2.2,2.2,0,0,0-1.894,1.38A52.293,52.293,0,0,1,96.341,93.4ZM5.02,80.57h16.7c2.051,3.77,16.215,27.89,46.594,27.89S112.853,84.341,114.9,80.57h16.7l-1.281,9.3H118.635c-.629,0-1.139.694-1.139,1.549s.51,1.55,1.139,1.55h11.256l-11.523,83.645a9.55,9.55,0,0,0-6.8-3.075c-6.283,0-11.385,6.944-11.385,15.494s5.1,15.494,11.385,15.494a8.584,8.584,0,0,0,3.033-.587l-2.579,18.714A165.442,165.442,0,0,0,68.31,216.92a165.443,165.443,0,0,0-43.717,5.732l-2.579-18.714a8.584,8.584,0,0,0,3.033.587c6.283,0,11.385-6.944,11.385-15.494s-5.1-15.494-11.385-15.494a9.55,9.55,0,0,0-6.8,3.075L6.728,92.966H17.553c7.077,10.149,23.359,27.89,50.761,27.89.442,0,.812-.037,1.152-.042.629-.012,1.132-.715,1.123-1.571s-.525-1.54-1.154-1.528c-.43.007-.784.042-1.121.042-27.062,0-42.873-17.751-49.494-27.4a1.027,1.027,0,0,0-.832-.49H6.3Zm94.074,28.307a.893.893,0,0,0-.516.151c-1.432.889-2.921,1.738-4.483,2.536a1.76,1.76,0,0,0-.667,2c.221.8.878,1.209,1.468.908,1.617-.826,3.152-1.706,4.625-2.621a1.727,1.727,0,0,0,.666-1.72,1.308,1.308,0,0,0-1.093-1.252ZM85.325,115.19a.866.866,0,0,0-.191.042,56.917,56.917,0,0,1-8.97,1.961,1.2,1.2,0,0,0-.963.893,2.026,2.026,0,0,0,.118,1.578,1.028,1.028,0,0,0,1.076.61,58.639,58.639,0,0,0,9.246-2.015,1.551,1.551,0,0,0,.91-1.656,1.361,1.361,0,0,0-1.11-1.412.841.841,0,0,0-.115,0ZM46.678,133.25c-5.649,0-10.247,6.257-10.247,13.945s4.6,13.945,10.247,13.945,10.247-6.257,10.247-13.945a17.051,17.051,0,0,0-2.353-8.782,8.076,8.076,0,0,1,.076,1.035c0,3.424-2.038,6.2-4.554,6.2s-4.554-2.773-4.554-6.2c0-2.792,1.368-5.126,3.233-5.9a7.648,7.648,0,0,0-2.1-.3Zm43.263,0c-5.649,0-10.247,6.257-10.247,13.945s4.6,13.945,10.247,13.945,10.247-6.257,10.247-13.945a17.051,17.051,0,0,0-2.353-8.782,8.074,8.074,0,0,1,.076,1.035c0,3.424-2.038,6.2-4.554,6.2s-4.554-2.773-4.554-6.2c0-2.792,1.368-5.126,3.233-5.9a7.648,7.648,0,0,0-2.095-.3Zm-29.6,34.088c-.629,0-1.138.694-1.139,1.549a26.891,26.891,0,0,0,2.517,11.161c1.568,3.281,3.842,5.883,6.591,5.883s5.023-2.6,6.591-5.883a26.891,26.891,0,0,0,2.517-11.161c0-.856-.51-1.549-1.138-1.549Zm1.49,3.1H74.789a23.476,23.476,0,0,1-1.8,7.923c-1.316,2.755-3.03,4.473-4.683,4.473s-3.367-1.718-4.683-4.473a23.476,23.476,0,0,1-1.793-7.924Zm-36.784,6.2c5.057,0,9.108,5.513,9.108,12.4s-4.051,12.4-9.108,12.4a6.619,6.619,0,0,1-3.527-1.1l-2.771-20.1a7.937,7.937,0,0,1,6.3-3.6Zm86.527,0a7.937,7.937,0,0,1,6.3,3.6l-2.771,20.1a6.619,6.619,0,0,1-3.527,1.1c-5.057,0-9.108-5.513-9.108-12.4s4.048-12.4,9.1-12.4Z" transform="translate(1762.83 554.302) rotate(30)"/>
      <path id="ice" d="M74.111,0a43.5,43.5,0,0,0-40.1,28.72L.358,113.206l-.02.064a5.294,5.294,0,0,0,2.733,6.663s0,0,0,.007l22.363,9.388L14.7,158.411c-2.832,7.665.7,16.434,7.869,19.482s15.383-.775,18.211-8.439l10.76-29.169,10.18,4.273v19.789c0,6.008,4.646,10.957,10.287,10.957S82.3,170.355,82.3,164.347v-8.824c1.173.5,2.1,1.519,3.429,1.519,5.641,0,10.287-4.949,10.287-10.957v-33.05l20.957-49.279q.035-.078.067-.157c8.834-23.632-2.719-50.6-25.551-60.186A43.288,43.288,0,0,0,74.111,0Zm.08,7.283a37.013,37.013,0,0,1,14.782,2.925c19.5,8.188,29.1,30.86,21.686,50.691L90.132,109.147a3.782,3.782,0,0,0-.978,2.6v34.334a3.436,3.436,0,1,1-6.858,0v-7.3a3.436,3.436,0,1,0-6.859,0v25.567a3.436,3.436,0,1,1-6.858,0V124.17a3.436,3.436,0,1,0-6.859,0v12.541L7.511,113.948,40.349,31.5l.027-.071A36.555,36.555,0,0,1,74.192,7.286ZM92.529,25.505a3.554,3.554,0,0,0-3.376,3.7v10.96a3.436,3.436,0,1,1-6.858,0v-7.3a3.436,3.436,0,1,0-6.859,0v7.3c0,6.008,4.646,10.957,10.287,10.957S96.01,46.173,96.01,40.165V29.208A3.779,3.779,0,0,0,95,26.572a3.323,3.323,0,0,0-2.476-1.067ZM56.1,37.54a3.555,3.555,0,0,0-3.376,3.709V57.97c0,6.008,4.646,10.957,10.287,10.957,1.332,0,2.256-1.019,3.429-1.519v8.824c0,6.008,4.646,10.957,10.287,10.957s10.289-4.948,10.289-10.957V65.275a3.436,3.436,0,1,0-6.859,0V76.232a3.436,3.436,0,1,1-6.858,0V54.318a3.436,3.436,0,1,0-6.859,0V57.97a3.436,3.436,0,1,1-6.858,0V41.249a3.78,3.78,0,0,0-1-2.64A3.324,3.324,0,0,0,56.1,37.54ZM31.817,132l13.348,5.607L34.4,166.786a6.95,6.95,0,0,1-9.289,4.323,7.867,7.867,0,0,1-4.025-10.023Z" transform="translate(1198.236 828.669) rotate(-60)"/>
      <path id="ice-2" data-name="ice" d="M74.111,178.941A43.5,43.5,0,0,1,34,150.221L.358,65.738l-.02-.064A5.294,5.294,0,0,1,3.07,59.011V59l22.363-9.388L14.7,20.532C11.865,12.867,15.4,4.1,22.566,1.05s15.383.775,18.211,8.439L51.54,38.659l10.18-4.273V14.6c0-6.008,4.646-10.957,10.287-10.957S82.3,8.589,82.3,14.6v8.82c1.173-.5,2.1-1.519,3.429-1.519,5.641,0,10.287,4.949,10.287,10.957v33.05l20.956,49.279q.035.078.067.157c8.834,23.632-2.719,50.6-25.551,60.186a43.288,43.288,0,0,1-17.372,3.41Zm.08-7.283a37.013,37.013,0,0,0,14.782-2.925c19.5-8.188,29.1-30.86,21.686-50.691L90.131,69.8a3.782,3.782,0,0,1-.978-2.6V32.859a3.436,3.436,0,1,0-6.858,0v7.3a3.436,3.436,0,1,1-6.859,0V14.6a3.436,3.436,0,1,0-6.858,0V54.774a3.436,3.436,0,1,1-6.859,0V42.233L7.511,65l32.838,82.45.027.071a36.555,36.555,0,0,0,33.815,24.136Zm18.338-18.219a3.554,3.554,0,0,1-3.376-3.7v-10.96a3.436,3.436,0,1,0-6.858,0v7.3a3.436,3.436,0,1,1-6.859,0v-7.3c0-6.008,4.646-10.957,10.287-10.957s10.287,4.949,10.287,10.957v10.957A3.779,3.779,0,0,1,95,152.372a3.323,3.323,0,0,1-2.476,1.067ZM56.094,141.4a3.555,3.555,0,0,1-3.376-3.709V120.974c0-6.008,4.646-10.957,10.287-10.957,1.332,0,2.256,1.019,3.429,1.519v-8.825c0-6.008,4.646-10.957,10.287-10.957S87.01,96.7,87.01,102.711v10.957a3.436,3.436,0,1,1-6.859,0V102.711a3.436,3.436,0,1,0-6.858,0v21.914a3.436,3.436,0,1,1-6.859,0v-3.652a3.436,3.436,0,1,0-6.858,0v16.721a3.78,3.78,0,0,1-1,2.64,3.324,3.324,0,0,1-2.482,1.067ZM31.816,46.941l13.348-5.607L34.394,12.157A6.95,6.95,0,0,0,25.1,7.834a7.867,7.867,0,0,0-4.025,10.023Z" transform="translate(1858.898 567.14) rotate(-120)"/>
      <path id="ice-3" data-name="ice" d="M74.111,178.941A43.5,43.5,0,0,1,34,150.221L.358,65.738l-.02-.064A5.294,5.294,0,0,1,3.07,59.011V59l22.363-9.388L14.7,20.532C11.865,12.867,15.4,4.1,22.566,1.05s15.383.775,18.211,8.439L51.54,38.659l10.18-4.273V14.6c0-6.008,4.646-10.957,10.287-10.957S82.3,8.589,82.3,14.6v8.82c1.173-.5,2.1-1.519,3.429-1.519,5.641,0,10.287,4.949,10.287,10.957v33.05l20.956,49.279q.035.078.067.157c8.834,23.632-2.719,50.6-25.551,60.186a43.288,43.288,0,0,1-17.372,3.41Zm.08-7.283a37.013,37.013,0,0,0,14.782-2.925c19.5-8.188,29.1-30.86,21.686-50.691L90.131,69.8a3.782,3.782,0,0,1-.978-2.6V32.859a3.436,3.436,0,1,0-6.858,0v7.3a3.436,3.436,0,1,1-6.859,0V14.6a3.436,3.436,0,1,0-6.858,0V54.774a3.436,3.436,0,1,1-6.859,0V42.233L7.511,65l32.838,82.45.027.071a36.555,36.555,0,0,0,33.815,24.136Zm18.338-18.219a3.554,3.554,0,0,1-3.376-3.7v-10.96a3.436,3.436,0,1,0-6.858,0v7.3a3.436,3.436,0,1,1-6.859,0v-7.3c0-6.008,4.646-10.957,10.287-10.957s10.287,4.949,10.287,10.957v10.957A3.779,3.779,0,0,1,95,152.372a3.323,3.323,0,0,1-2.476,1.067ZM56.094,141.4a3.555,3.555,0,0,1-3.376-3.709V120.974c0-6.008,4.646-10.957,10.287-10.957,1.332,0,2.256,1.019,3.429,1.519v-8.825c0-6.008,4.646-10.957,10.287-10.957S87.01,96.7,87.01,102.711v10.957a3.436,3.436,0,1,1-6.859,0V102.711a3.436,3.436,0,1,0-6.858,0v21.914a3.436,3.436,0,1,1-6.859,0v-3.652a3.436,3.436,0,1,0-6.858,0v16.721a3.78,3.78,0,0,1-1,2.64,3.324,3.324,0,0,1-2.482,1.067ZM31.816,46.941l13.348-5.607L34.394,12.157A6.95,6.95,0,0,0,25.1,7.834a7.867,7.867,0,0,0-4.025,10.023Z" transform="translate(1570.511 299.892) rotate(161)"/>
      <path id="Tracé_3" data-name="Tracé 3" d="M1143.477,373.555c-123.672-28.814-225.2-35.67-229.476-107.838s209.635-36.072,237.388-93.823S1108.836-36.39,981.175,8.107c-53.657,33.727-114.531,87.144-169.742,134.05-63.494,53.941-122.366,83.3-221.166,73.261-73.606-7.475-130.918-135.586-237.314-162.7-36.509-9.3-93.584,34.094-181.819,57.022S-1.3,94.7.015,144.429c1.53,19.087,24.714,37.235,44.183,64.33,25.256,35.139,38.441,57.419,65.994,101.282" transform="translate(783.426 363.071) rotate(-3)" fill="none" stroke="#707070" stroke-width="2" opacity="0.35"/>
      <path id="pizzaBg" d="M88.123.02A7.807,7.807,0,0,0,81.4,5.026c-1.517,4.041-2.675,7.159-3.126,8.434l-.006.013c-.157.45-.284.869-.41,1.292L.247,201.265a3.228,3.228,0,0,0,4.211,4.223l87.487-36.063a3.448,3.448,0,0,1,4.879,3.265v14.032a13.217,13.217,0,0,0,10.294,13.111,13.006,13.006,0,0,0,15.526-12.645V160.169a4.736,4.736,0,0,1,2.874-4.368l.025-.013.139-.063h.006a4.673,4.673,0,0,1,6.638,4.374v41.188A14.8,14.8,0,0,0,143.752,215.9a14.624,14.624,0,0,0,17.619-14.189V148.268a11.126,11.126,0,0,1,6.9-10.3l21.773-8.976.1-.019a3.229,3.229,0,0,0,.655-.139l.057-.019a3.227,3.227,0,0,0,.46-.2l.075-.038c.916-.332,1.828-.721,3.347-1.412,1.786-.812,4.039-1.867,6.549-3.045h.006a7.743,7.743,0,0,0,3.889-9.815c-6.415-15.956-18.907-46.545-42.713-70.279C138.8,20.441,108.818,6.4,91.092.4A7.563,7.563,0,0,0,88.123.02Zm.4,6.423a1.356,1.356,0,0,1,.5.069c16.9,5.719,46.255,19.528,68.879,42.089s34.891,52.212,41.282,68.11a1.165,1.165,0,0,1-.649,1.57c-2.5,1.175-4.745,2.224-6.48,3.013-1.6.725-2.717,1.179-2.956,1.273a3.227,3.227,0,0,0-.977.233.555.555,0,0,1-.214-.082,3.479,3.479,0,0,1-1.059-1.708V121c-.778-2.1-1.82-4.759-3.152-7.848a3.228,3.228,0,1,0-5.926,2.559c1.283,2.973,2.281,5.525,3.026,7.533a12.65,12.65,0,0,0,1.047,2.143L165.8,132a17.614,17.614,0,0,0-10.886,16.27v53.442a8.043,8.043,0,0,1-9.815,7.879h0a8.388,8.388,0,0,1-6.316-8.3V160.1a11.306,11.306,0,0,0-15.652-10.3l-.025.006-.139.063-.013.006-.006.006a11.228,11.228,0,0,0-6.758,10.287v27.017A6.43,6.43,0,0,1,108.4,193.5a6.823,6.823,0,0,1-5.125-6.782V172.688a10.079,10.079,0,0,0-13.792-9.235l-25.147,10.37.082-.46-1.973-2.112-1.122-.2-2.585,1.3-.511,2.843.776.832L9.2,196.547,51.922,93.887a32.235,32.235,0,0,0,57.81-19.7C109.5,54.349,92.859,41.813,75.321,41.95h-.006c-.605.005-1.207.042-1.809.076l7.243-17.4a19.318,19.318,0,0,0,3.373,1.55c1.821.69,4,1.554,6.461,2.61a3.231,3.231,0,1,0,2.547-5.938c-2.563-1.1-4.837-1.993-6.732-2.711l-.006-.006a14.939,14.939,0,0,1-2.477-1.1c-.146-.1-.17-.1-.183-.1q-.008-.06-.019-.12V18.8a8.348,8.348,0,0,1,.643-3.19l.006-.013c.4-1.117,1.57-4.286,3.083-8.314a1.217,1.217,0,0,1,1.082-.844Zm15,21.647-2.585,1.292-.511,2.849,1.979,2.112,1.116.2,2.585-1.3.511-2.843-1.973-2.112Zm11.258,6.316L112.2,35.7l-.511,2.849,1.973,2.112,1.122.2,2.585-1.3.511-2.843L115.905,34.6Zm10.785,7.085-2.585,1.3-.511,2.843,1.973,2.112,1.122.2,2.585-1.292.511-2.849-1.979-2.112Zm-50.2,6.915c14.53-.114,27.711,9.535,27.906,25.857A25.824,25.824,0,0,1,55.691,88.126a3.228,3.228,0,0,0-.952-1.009l5.453-13.1.006.006,1.122.2,2.585-1.3.511-2.843-1.79-1.916,8.081-19.421a3.228,3.228,0,0,0,.7-.044,27.948,27.948,0,0,1,3.964-.292Zm60.407.983L133.2,50.682l-.511,2.849,1.973,2.112,1.122.2,2.585-1.3.511-2.843-1.98-2.115ZM74.955,56.513l-2.585,1.3-.511,2.843,1.973,2.112,1.122.2,2.585-1.292.511-2.849-1.979-2.112Zm70.386,1.538-2.585,1.292-.511,2.849,1.979,2.112,1.116.2,2.591-1.3.5-2.843-1.973-2.112ZM86.73,60.97l-2.584,1.292-.511,2.849,1.973,2.112,1.122.2,2.585-1.3.511-2.843-1.979-2.112Zm67.285,6.638L151.43,68.9l-.511,2.849,1.973,2.112,1.122.2,2.585-1.3.511-2.843L155.137,67.8Zm-61.762,4.7L89.668,73.6l-.511,2.849L91.13,78.56l1.122.2,2.585-1.3.511-2.843L93.369,72.5Zm69.674,5.49-2.585,1.292-.511,2.849,1.979,2.112,1.116.2,2.585-1.3.511-2.843L163.048,78Zm-97.819,2.25-2.591,1.3-.5,2.843L62.984,86.3l1.122.2,2.585-1.292.511-2.849-1.979-2.112ZM87.45,83.6l-2.585,1.3-.511,2.849,1.979,2.112,1.116.2,2.585-1.292.511-2.85-1.973-2.111ZM75.106,86.127l-2.585,1.3L72.01,90.27l1.973,2.112,1.122.2L77.69,91.29l.511-2.849-1.973-2.112Zm93.917,2.452-2.585,1.292-.511,2.849,1.973,2.112,1.122.2,2.585-1.3.511-2.843-1.979-2.112Zm-33.315.258a23.812,23.812,0,0,0-9.979,1.854,26.066,26.066,0,0,0-9.8,7.432c-2.668,3.3-4.57,7.5-3.694,11.989A13.212,13.212,0,0,0,115.5,116.5a10.626,10.626,0,0,0,5.106,3.164c-1.267,3.535-1.254,7.2.643,10.306,2.739,4.482,7.782,5.223,10.741,5.837,2.517.522,5.735,1.29,9.147-.177,3.81-1.634,6.086-5.164,7.11-9.291a10.9,10.9,0,0,0,9.241-1c3.631-2.28,4.79-6.449,4.917-10.319a25.406,25.406,0,0,0-2.2-11.063c-2.76-6.078-8.277-10.6-14.574-13.074a29.3,29.3,0,0,0-9.923-2.043Zm-.12,6.474a22.754,22.754,0,0,1,7.69,1.582c4.966,1.947,9.165,5.568,11.057,9.739a20.039,20.039,0,0,1,1.626,8.176c-.088,2.7-.916,4.453-1.9,5.068h-.006c-1.138.716-4.229.583-6.008-.958a3.224,3.224,0,0,0-.315-.309,6.3,6.3,0,0,1-.662-7.426,3.229,3.229,0,0,0-5.61-3.2,12.79,12.79,0,0,0,.92,14.271c-.318,3.893-2.031,6.684-3.788,7.438-1.229.528-2.765.309-5.289-.214-2.951-.612-5.7-1.5-6.543-2.881-.951-1.558-.551-5.515,2.522-9.077a15.273,15.273,0,0,0,5.219-10.6,3.228,3.228,0,1,0-6.43-.542c-.4,4.791-3.794,7.18-5.358,7.123a3.731,3.731,0,0,1-2.452-1.381,7.425,7.425,0,0,1-1.69-3.253c-.376-1.925.462-4.328,2.377-6.694a20.493,20.493,0,0,1,7.318-5.56,17.527,17.527,0,0,1,7.323-1.3Zm39.763,4.513-2.584,1.292-.511,2.849,1.979,2.112,1.116.2,2.591-1.3.5-2.843-1.973-2.112ZM77.458,116.183a19.365,19.365,0,1,0,19.365,19.365,19.365,19.365,0,0,0-19.365-19.365Zm0,6.455a12.863,12.863,0,1,1-9.143,3.767,12.91,12.91,0,0,1,9.143-3.767Zm-38.508,39.5-2.585,1.3-.511,2.843,1.973,2.118,1.122.2,2.584-1.292.511-2.849-1.973-2.112Zm12.639.706L49,164.144l-.511,2.843,1.979,2.112,1.116.2,2.585-1.292.511-2.849-1.973-2.112Zm-23.066,6.535-2.585,1.3-.511,2.849,1.979,2.112,1.116.2,2.591-1.292.5-2.849-1.973-2.112Zm-3.751,12.072-2.591,1.3-.5,2.843,1.973,2.112,1.122.2,2.585-1.292.511-2.849-1.979-2.112Z" transform="translate(1206.479 442.439) rotate(30)"/>
    </g>
    <path id="Tracé_2" data-name="Tracé 2" d="M1962.97,1097.69S1750.5,950.331,1701.83,896.422s-45.968-98.14-31.1-223.11S1658.57,450,1527.42,495.328,1283.01,706.252,1219.566,718.41s-79.8-41.734-77.809-77.9,17.01-110.552-35.143-120.16-97.572,3.354-132.626-20.369-28.733-52.9-19.477-59.888,30.246-2.713,35.606-1.947" transform="matrix(0.999, -0.035, 0.035, 0.999, -34.261, 178.433)" fill="none" stroke="#707070" stroke-width="2" opacity="0.35"/>
    <path id="Tracé_1" data-name="Tracé 1" d="M1520.27,1076.81s-31.579-86.326-40.309-140.22,24.25-88.987,51.411-120.947c21.294-25.057,22.354-68.9-17.46-88.987-11.192-5.647-30.859-11.107-48.946-10.587-39.188-1.818-123.6,33.415-178.039,72.628-50.26,36.2-57.458,46.477-84,77.707s-125.49,44.626-127.275-23.174,139.169-192.7,80.29-253.359-121.826-43.753-148.626-103.037S974.9,395.5,987.124,381.851s39.24,5.687,88.715,2.559a187.835,187.835,0,0,0,31.776-4.706c28.9-6.872,11.724-12.361,11.724-12.361" transform="translate(-114.048 208.1) rotate(-3)" fill="none" stroke="#707070" stroke-width="2" opacity="0.35"/>
    <circle id="Ellipse_1" data-name="Ellipse 1" cx="13.5" cy="13.5" r="13.5" transform="translate(885 488)" fill="#ffda7f"/>
    <circle id="Ellipse_4" data-name="Ellipse 4" cx="10" cy="10" r="10" transform="translate(853 392)" fill="#191818"/>
    <circle id="Ellipse_11" data-name="Ellipse 11" cx="3" cy="3" r="3" transform="translate(1127 206)" fill="#191818"/>
    <circle id="Ellipse_5" data-name="Ellipse 5" cx="7.5" cy="7.5" r="7.5" transform="translate(927 295)" fill="#ffda7f"/>
    <circle id="Ellipse_2" data-name="Ellipse 2" cx="6" cy="6" r="6" transform="translate(791 570)" fill="#ffda7f"/>
    <circle id="Ellipse_3" data-name="Ellipse 3" cx="3.5" cy="3.5" r="3.5" transform="translate(846 678)" fill="#191818"/>
    <rect id="Rectangle_4" data-name="Rectangle 4" width="274.43" height="82.061" transform="translate(940.536 603.419) rotate(43)" fill="#191818"/>
    <rect id="Rectangle_7" data-name="Rectangle 7" width="286.43" height="74" transform="translate(989.99 550.931) rotate(43)" fill="#191818"/>
    <rect id="Rectangle_6" data-name="Rectangle 6" width="118.43" height="59" transform="translate(1108.627 757.437) rotate(43)" fill="#191818"/>
    <rect id="Rectangle_5" data-name="Rectangle 5" width="307.43" height="45" transform="matrix(-0.438, 0.899, -0.899, -0.438, 1149.197, 753.061)" fill="#191818"/>
    <path id="pizzaBg2" d="M63.6,1A93.2,93.2,0,0,0,6.2,21.1a2.992,2.992,0,0,0,3.7,4.7A87.871,87.871,0,0,1,63.6,7a86.848,86.848,0,0,1,53.8,18.3,6.546,6.546,0,0,1,2.6,5,6.922,6.922,0,0,1-2,5.3l-.1.1a6.884,6.884,0,0,1-9.1.6,73.132,73.132,0,0,0-96.5,6,3.012,3.012,0,0,0-.5,3.6l19,34.7a6.759,6.759,0,0,0,5,3.5,6.938,6.938,0,0,0,6-1.8l.1-.1a9.057,9.057,0,0,1,12.2.2,8.793,8.793,0,0,1,2.8,6.4,9.406,9.406,0,0,1-2.6,6.5,8.776,8.776,0,0,1-4.1,2.3,7.062,7.062,0,0,0-4.8,4.1,6.588,6.588,0,0,0,.3,6.1l6.8,12.4c2.1,3.9,6,6.3,11,7h.8c5-.7,8.9-3.2,11-7.1l30.5-51.7a3,3,0,0,0-5.2-3L71.1,115.5a2.033,2.033,0,0,0-.6.9l-.5,1a8.2,8.2,0,0,1-6.1,3.8,8.393,8.393,0,0,1-6.1-3.9L51.1,105a.951.951,0,0,1,0-.9,1.362,1.362,0,0,1,.8-.6A15.025,15.025,0,1,0,38,77.8l-.2.2a1.13,1.13,0,0,1-1,.3.794.794,0,0,1-.7-.5L18.2,45.1a67.021,67.021,0,0,1,86.9-3.9,13.165,13.165,0,0,0,21-11.2,12.888,12.888,0,0,0-4.9-9.4A94.029,94.029,0,0,0,64,1ZM81,40.975A14.04,14.04,0,1,0,90.9,45.1,13.957,13.957,0,0,0,81,40.975ZM81,47a8.458,8.458,0,0,1,5.7,2.3A7.927,7.927,0,0,1,89,55a7.951,7.951,0,0,1-13.6,5.7A7.95,7.95,0,0,1,73,55a8.274,8.274,0,0,1,2.3-5.7A8.458,8.458,0,0,1,81,47Z" transform="matrix(0.809, 0.588, -0.588, 0.809, 1815.137, -44.313)" fill="none" stroke="#000" stroke-width="1"/>
    <circle id="Ellipse_9" data-name="Ellipse 9" cx="5.5" cy="5.5" r="5.5" transform="translate(1284 181)" fill="#ffda7f" opacity="0.47"/>
    <circle id="Ellipse_10" data-name="Ellipse 10" cx="5" cy="5" r="5" transform="translate(1205 206)" fill="#ffda7f" opacity="0.47"/>
  </g>
</svg>
