<svg xmlns="http://www.w3.org/2000/svg" xmlns:xlink="http://www.w3.org/1999/xlink" width="98" height="141" viewBox="0 0 98 141">
  <defs>
    <clipPath id="clip-path">
      <rect width="98" height="141" fill="none"/>
    </clipPath>
  </defs>
  <g id="Grille_de_répétition_1" data-name="Grille de répétition 1" clip-path="url(#clip-path)">
    <g transform="translate(-131 -246)">
      <circle id="Ellipse_6" data-name="Ellipse 6" cx="1" cy="1" r="1" transform="translate(131 246)" fill="#191818"/>
    </g>
    <g transform="translate(-113 -246)">
      <circle id="Ellipse_6-2" data-name="Ellipse 6" cx="1" cy="1" r="1" transform="translate(131 246)" fill="#191818"/>
    </g>
    <g transform="translate(-95 -246)">
      <circle id="Ellipse_6-3" data-name="Ellipse 6" cx="1" cy="1" r="1" transform="translate(131 246)" fill="#191818"/>
    </g>
    <g transform="translate(-77 -246)">
      <circle id="Ellipse_6-4" data-name="Ellipse 6" cx="1" cy="1" r="1" transform="translate(131 246)" fill="#191818"/>
    </g>
    <g transform="translate(-59 -246)">
      <circle id="Ellipse_6-5" data-name="Ellipse 6" cx="1" cy="1" r="1" transform="translate(131 246)" fill="#191818"/>
    </g>
    <g transform="translate(-41 -246)">
      <circle id="Ellipse_6-6" data-name="Ellipse 6" cx="1" cy="1" r="1" transform="translate(131 246)" fill="#191818"/>
    </g>
    <g transform="translate(-131 -224)">
      <circle id="Ellipse_6-7" data-name="Ellipse 6" cx="1" cy="1" r="1" transform="translate(131 246)" fill="#191818"/>
    </g>
    <g transform="translate(-113 -224)">
      <circle id="Ellipse_6-8" data-name="Ellipse 6" cx="1" cy="1" r="1" transform="translate(131 246)" fill="#191818"/>
    </g>
    <g transform="translate(-95 -224)">
      <circle id="Ellipse_6-9" data-name="Ellipse 6" cx="1" cy="1" r="1" transform="translate(131 246)" fill="#191818"/>
    </g>
    <g transform="translate(-77 -224)">
      <circle id="Ellipse_6-10" data-name="Ellipse 6" cx="1" cy="1" r="1" transform="translate(131 246)" fill="#191818"/>
    </g>
    <g transform="translate(-59 -224)">
      <circle id="Ellipse_6-11" data-name="Ellipse 6" cx="1" cy="1" r="1" transform="translate(131 246)" fill="#191818"/>
    </g>
    <g transform="translate(-41 -224)">
      <circle id="Ellipse_6-12" data-name="Ellipse 6" cx="1" cy="1" r="1" transform="translate(131 246)" fill="#191818"/>
    </g>
    <g transform="translate(-131 -202)">
      <circle id="Ellipse_6-13" data-name="Ellipse 6" cx="1" cy="1" r="1" transform="translate(131 246)" fill="#191818"/>
    </g>
    <g transform="translate(-113 -202)">
      <circle id="Ellipse_6-14" data-name="Ellipse 6" cx="1" cy="1" r="1" transform="translate(131 246)" fill="#191818"/>
    </g>
    <g transform="translate(-95 -202)">
      <circle id="Ellipse_6-15" data-name="Ellipse 6" cx="1" cy="1" r="1" transform="translate(131 246)" fill="#191818"/>
    </g>
    <g transform="translate(-77 -202)">
      <circle id="Ellipse_6-16" data-name="Ellipse 6" cx="1" cy="1" r="1" transform="translate(131 246)" fill="#191818"/>
    </g>
    <g transform="translate(-59 -202)">
      <circle id="Ellipse_6-17" data-name="Ellipse 6" cx="1" cy="1" r="1" transform="translate(131 246)" fill="#191818"/>
    </g>
    <g transform="translate(-41 -202)">
      <circle id="Ellipse_6-18" data-name="Ellipse 6" cx="1" cy="1" r="1" transform="translate(131 246)" fill="#191818"/>
    </g>
    <g transform="translate(-131 -180)">
      <circle id="Ellipse_6-19" data-name="Ellipse 6" cx="1" cy="1" r="1" transform="translate(131 246)" fill="#191818"/>
    </g>
    <g transform="translate(-113 -180)">
      <circle id="Ellipse_6-20" data-name="Ellipse 6" cx="1" cy="1" r="1" transform="translate(131 246)" fill="#191818"/>
    </g>
    <g transform="translate(-95 -180)">
      <circle id="Ellipse_6-21" data-name="Ellipse 6" cx="1" cy="1" r="1" transform="translate(131 246)" fill="#191818"/>
    </g>
    <g transform="translate(-77 -180)">
      <circle id="Ellipse_6-22" data-name="Ellipse 6" cx="1" cy="1" r="1" transform="translate(131 246)" fill="#191818"/>
    </g>
    <g transform="translate(-59 -180)">
      <circle id="Ellipse_6-23" data-name="Ellipse 6" cx="1" cy="1" r="1" transform="translate(131 246)" fill="#191818"/>
    </g>
    <g transform="translate(-41 -180)">
      <circle id="Ellipse_6-24" data-name="Ellipse 6" cx="1" cy="1" r="1" transform="translate(131 246)" fill="#191818"/>
    </g>
    <g transform="translate(-131 -158)">
      <circle id="Ellipse_6-25" data-name="Ellipse 6" cx="1" cy="1" r="1" transform="translate(131 246)" fill="#191818"/>
    </g>
    <g transform="translate(-113 -158)">
      <circle id="Ellipse_6-26" data-name="Ellipse 6" cx="1" cy="1" r="1" transform="translate(131 246)" fill="#191818"/>
    </g>
    <g transform="translate(-95 -158)">
      <circle id="Ellipse_6-27" data-name="Ellipse 6" cx="1" cy="1" r="1" transform="translate(131 246)" fill="#191818"/>
    </g>
    <g transform="translate(-77 -158)">
      <circle id="Ellipse_6-28" data-name="Ellipse 6" cx="1" cy="1" r="1" transform="translate(131 246)" fill="#191818"/>
    </g>
    <g transform="translate(-59 -158)">
      <circle id="Ellipse_6-29" data-name="Ellipse 6" cx="1" cy="1" r="1" transform="translate(131 246)" fill="#191818"/>
    </g>
    <g transform="translate(-41 -158)">
      <circle id="Ellipse_6-30" data-name="Ellipse 6" cx="1" cy="1" r="1" transform="translate(131 246)" fill="#191818"/>
    </g>
    <g transform="translate(-131 -136)">
      <circle id="Ellipse_6-31" data-name="Ellipse 6" cx="1" cy="1" r="1" transform="translate(131 246)" fill="#191818"/>
    </g>
    <g transform="translate(-113 -136)">
      <circle id="Ellipse_6-32" data-name="Ellipse 6" cx="1" cy="1" r="1" transform="translate(131 246)" fill="#191818"/>
    </g>
    <g transform="translate(-95 -136)">
      <circle id="Ellipse_6-33" data-name="Ellipse 6" cx="1" cy="1" r="1" transform="translate(131 246)" fill="#191818"/>
    </g>
    <g transform="translate(-77 -136)">
      <circle id="Ellipse_6-34" data-name="Ellipse 6" cx="1" cy="1" r="1" transform="translate(131 246)" fill="#191818"/>
    </g>
    <g transform="translate(-59 -136)">
      <circle id="Ellipse_6-35" data-name="Ellipse 6" cx="1" cy="1" r="1" transform="translate(131 246)" fill="#191818"/>
    </g>
    <g transform="translate(-41 -136)">
      <circle id="Ellipse_6-36" data-name="Ellipse 6" cx="1" cy="1" r="1" transform="translate(131 246)" fill="#191818"/>
    </g>
    <g transform="translate(-131 -114)">
      <circle id="Ellipse_6-37" data-name="Ellipse 6" cx="1" cy="1" r="1" transform="translate(131 246)" fill="#191818"/>
    </g>
    <g transform="translate(-113 -114)">
      <circle id="Ellipse_6-38" data-name="Ellipse 6" cx="1" cy="1" r="1" transform="translate(131 246)" fill="#191818"/>
    </g>
    <g transform="translate(-95 -114)">
      <circle id="Ellipse_6-39" data-name="Ellipse 6" cx="1" cy="1" r="1" transform="translate(131 246)" fill="#191818"/>
    </g>
    <g transform="translate(-77 -114)">
      <circle id="Ellipse_6-40" data-name="Ellipse 6" cx="1" cy="1" r="1" transform="translate(131 246)" fill="#191818"/>
    </g>
    <g transform="translate(-59 -114)">
      <circle id="Ellipse_6-41" data-name="Ellipse 6" cx="1" cy="1" r="1" transform="translate(131 246)" fill="#191818"/>
    </g>
    <g transform="translate(-41 -114)">
      <circle id="Ellipse_6-42" data-name="Ellipse 6" cx="1" cy="1" r="1" transform="translate(131 246)" fill="#191818"/>
    </g>
  </g>
</svg>
