<?xml version="1.0" encoding="utf-8"?>
<svg xmlns="http://www.w3.org/2000/svg" viewBox="0 0 26 26" width="208" height="208">
  <path d="M13 1C6.382813 1 1 6.382813 1 13C1 19.617188 6.382813 25 13 25C19.617188 25 25 19.617188 25 13C25 6.382813 19.617188 1 13 1 Z M 13 3C18.535156 3 23 7.464844 23 13C23 18.535156 18.535156 23 13 23C7.464844 23 3 18.535156 3 13C3 7.464844 7.464844 3 13 3 Z M 13 5C8.582031 5 5 8.582031 5 13C5 17.417969 8.582031 21 13 21C17.417969 21 21 17.417969 21 13C21 8.582031 17.417969 5 13 5Z" fill="#ffdb80" />
</svg>